HIERARCHY
ROOT Hips
{
	OFFSET 0.000000 71.427986 0.000000
	CHANNELS 6 Xposition Yposition Zposition Xrotation Yrotation Zrotation
	JOINT Pelvis
	{
		OFFSET 0.000000 0.000000 0.000000
		CHANNELS 3 Xrotation Yrotation Zrotation
		JOINT LeftUpLeg
		{
			OFFSET 6.797100 -2.508499 -1.318700
			CHANNELS 3 Xrotation Yrotation Zrotation
			JOINT LeftLeg
			{
				OFFSET 0.069008 -29.241863 0.690200
				CHANNELS 3 Xrotation Yrotation Zrotation
				JOINT LeftFoot
				{
					OFFSET -0.069008 -29.568123 -0.266800
					CHANNELS 3 Xrotation Yrotation Zrotation
					JOINT LeftToeBase
					{
						OFFSET 3.145500 -8.631000 16.059900
						CHANNELS 3 Xrotation Yrotation Zrotation
						End Site
						{
							OFFSET 0.000000 18.501587 0.000000
						}
					}
				}
			}
			JOINT Left_ShortSleeve
			{
				OFFSET 0.265923 -10.480953 1.153800
				CHANNELS 3 Xrotation Yrotation Zrotation
				End Site
				{
					OFFSET 1.725763 19.823879 0.000000
				}
			}
		}
		JOINT RightUpLeg
		{
			OFFSET -6.797100 -2.508499 -1.318700
			CHANNELS 3 Xrotation Yrotation Zrotation
			JOINT RightLeg
			{
				OFFSET -0.082453 -29.241932 0.688000
				CHANNELS 3 Xrotation Yrotation Zrotation
				JOINT RightFoot
				{
					OFFSET 0.082453 -29.568058 -0.264600
					CHANNELS 3 Xrotation Yrotation Zrotation
					JOINT RightToeBase
					{
						OFFSET -3.115300 -8.682800 16.113400
						CHANNELS 3 Xrotation Yrotation Zrotation
						End Site
						{
							OFFSET 0.000000 18.567114 0.000000
						}
					}
				}
			}
			JOINT Right_ShortSleeve
			{
				OFFSET -0.265923 -10.480953 1.153800
				CHANNELS 3 Xrotation Yrotation Zrotation
				End Site
				{
					OFFSET -1.725766 19.823910 0.000000
				}
			}
		}
	}
	JOINT Spine
	{
		OFFSET 0.000000 13.368103 0.470500
		CHANNELS 3 Xrotation Yrotation Zrotation
		JOINT Spine1
		{
			OFFSET 0.147000 13.837402 0.538800
			CHANNELS 3 Xrotation Yrotation Zrotation
			JOINT Spine2
			{
				OFFSET 0.168000 16.242897 -1.435500
				CHANNELS 3 Xrotation Yrotation Zrotation
				JOINT Neck
				{
					OFFSET 0.217200 18.631500 -1.679100
					CHANNELS 3 Xrotation Yrotation Zrotation
					JOINT Head
					{
						OFFSET 0.000000 6.599396 1.385900
						CHANNELS 3 Xrotation Yrotation Zrotation
						JOINT Hat
						{
							OFFSET -0.532200 27.220596 -10.096100
							CHANNELS 3 Xrotation Yrotation Zrotation
							End Site
							{
								OFFSET 0.000000 22.029861 0.000000
							}
						}
						JOINT HairD
						{
							OFFSET -10.777400 17.437393 -1.325900
							CHANNELS 3 Xrotation Yrotation Zrotation
							JOINT HairD1
							{
								OFFSET -3.290299 -11.051193 1.062200
								CHANNELS 3 Xrotation Yrotation Zrotation
								End Site
								{
									OFFSET 0.000000 11.579437 0.000000
								}
							}
						}
						JOINT HairB
						{
							OFFSET -10.777400 17.437393 1.467900
							CHANNELS 3 Xrotation Yrotation Zrotation
							JOINT HairB1
							{
								OFFSET -1.561200 -12.956299 3.590200
								CHANNELS 3 Xrotation Yrotation Zrotation
								End Site
								{
									OFFSET 0.000000 13.534866 0.000000
								}
							}
						}
						JOINT HairA
						{
							OFFSET 9.713100 17.437393 1.467900
							CHANNELS 3 Xrotation Yrotation Zrotation
							JOINT HairA1
							{
								OFFSET 1.561200 -12.956299 3.590200
								CHANNELS 3 Xrotation Yrotation Zrotation
								End Site
								{
									OFFSET 0.000000 13.534866 0.000000
								}
							}
						}
						JOINT HairC
						{
							OFFSET 9.713100 17.437393 -1.325900
							CHANNELS 3 Xrotation Yrotation Zrotation
							JOINT HairC1
							{
								OFFSET 3.290300 -11.051193 1.062200
								CHANNELS 3 Xrotation Yrotation Zrotation
								End Site
								{
									OFFSET 0.000000 11.579437 0.000000
								}
							}
						}
					}
				}
				JOINT LeftShoulder
				{
					OFFSET 5.101800 15.108002 -2.763700
					CHANNELS 3 Xrotation Yrotation Zrotation
					JOINT LeftArm
					{
						OFFSET 9.825497 2.506317 -1.597400
						CHANNELS 3 Xrotation Yrotation Zrotation
						JOINT LeftForeArm
						{
							OFFSET 21.966244 0.000000 0.000000
							CHANNELS 3 Xrotation Yrotation Zrotation
							JOINT LeftHand
							{
								OFFSET 33.879036 0.000000 0.000000
								CHANNELS 3 Xrotation Yrotation Zrotation
								JOINT LeftHandThumb1
								{
									OFFSET 6.715286 -2.359680 3.363841
									CHANNELS 3 Xrotation Yrotation Zrotation
									JOINT LeftHandThumb2
									{
										OFFSET 2.507072 -1.447464 1.447461
										CHANNELS 3 Xrotation Yrotation Zrotation
										JOINT LeftHandThumb3
										{
											OFFSET 2.898338 -1.673355 1.673357
											CHANNELS 3 Xrotation Yrotation Zrotation
											End Site
											{
												OFFSET -0.295959 3.727692 -0.131651
											}
										}
									}
								}
								JOINT LeftHandIndex1
								{
									OFFSET 14.190811 -0.254547 3.840278
									CHANNELS 3 Xrotation Yrotation Zrotation
									JOINT LeftHandIndex2
									{
										OFFSET 3.551727 0.000000 -0.000000
										CHANNELS 3 Xrotation Yrotation Zrotation
										JOINT LeftHandIndex3
										{
											OFFSET 2.894196 0.000000 0.000000
											CHANNELS 3 Xrotation Yrotation Zrotation
											End Site
											{
												OFFSET -1.000603 2.690872 0.366626
											}
										}
									}
								}
								JOINT LeftHandMiddle1
								{
									OFFSET 13.776489 0.000000 0.000000
									CHANNELS 3 Xrotation Yrotation Zrotation
									JOINT LeftHandMiddle2
									{
										OFFSET 3.438232 0.000000 0.000000
										CHANNELS 3 Xrotation Yrotation Zrotation
										JOINT LeftHandMiddle3
										{
											OFFSET 3.691551 0.000000 0.000000
											CHANNELS 3 Xrotation Yrotation Zrotation
											End Site
											{
												OFFSET -1.082298 3.499527 0.457670
											}
										}
									}
								}
								JOINT LeftHandRing1
								{
									OFFSET 13.966164 -0.268127 -3.067488
									CHANNELS 3 Xrotation Yrotation Zrotation
									JOINT LeftHandRing2
									{
										OFFSET 3.162567 0.000000 0.000000
										CHANNELS 3 Xrotation Yrotation Zrotation
										JOINT LeftHandRing3
										{
											OFFSET 3.324348 0.000000 0.000000
											CHANNELS 3 Xrotation Yrotation Zrotation
											End Site
											{
												OFFSET -0.861900 3.184998 0.405154
											}
										}
									}
								}
								JOINT LeftHandPinky1
								{
									OFFSET 13.131393 -0.168503 -5.746925
									CHANNELS 3 Xrotation Yrotation Zrotation
									JOINT LeftHandPinky2
									{
										OFFSET 2.849182 0.000000 0.000000
										CHANNELS 3 Xrotation Yrotation Zrotation
										JOINT LeftHandPinky3
										{
											OFFSET 2.805038 0.000000 0.000000
											CHANNELS 3 Xrotation Yrotation Zrotation
											End Site
											{
												OFFSET -0.882500 2.642609 0.325652
											}
										}
									}
								}
							}
							JOINT Left_Sleeve
							{
								OFFSET 6.592125 -0.646545 0.805568
								CHANNELS 3 Xrotation Yrotation Zrotation
								End Site
								{
									OFFSET -0.000179 20.275787 -0.000000
								}
							}
						}
					}
				}
				JOINT RightShoulder
				{
					OFFSET -5.731700 15.108002 -2.763700
					CHANNELS 3 Xrotation Yrotation Zrotation
					JOINT RightArm
					{
						OFFSET -9.825497 2.506317 -1.597400
						CHANNELS 3 Xrotation Yrotation Zrotation
						JOINT RightForeArm
						{
							OFFSET -21.966242 0.000000 0.000000
							CHANNELS 3 Xrotation Yrotation Zrotation
							JOINT RightHand
							{
								OFFSET -33.879032 0.000000 0.000000
								CHANNELS 3 Xrotation Yrotation Zrotation
								JOINT RightHandThumb1
								{
									OFFSET -6.715286 -2.359680 3.363841
									CHANNELS 3 Xrotation Yrotation Zrotation
									JOINT RightHandThumb2
									{
										OFFSET -2.507072 -1.447464 1.447461
										CHANNELS 3 Xrotation Yrotation Zrotation
										JOINT RightHandThumb3
										{
											OFFSET -2.898338 -1.673355 1.673357
											CHANNELS 3 Xrotation Yrotation Zrotation
											End Site
											{
												OFFSET 0.295959 3.727692 -0.131651
											}
										}
									}
								}
								JOINT RightHandIndex1
								{
									OFFSET -14.190811 -0.254547 3.840278
									CHANNELS 3 Xrotation Yrotation Zrotation
									JOINT RightHandIndex2
									{
										OFFSET -3.551727 0.000000 -0.000000
										CHANNELS 3 Xrotation Yrotation Zrotation
										JOINT RightHandIndex3
										{
											OFFSET -2.894196 0.000000 0.000000
											CHANNELS 3 Xrotation Yrotation Zrotation
											End Site
											{
												OFFSET 1.000603 2.690872 0.366626
											}
										}
									}
								}
								JOINT RightHandMiddle1
								{
									OFFSET -13.776489 0.000000 0.000000
									CHANNELS 3 Xrotation Yrotation Zrotation
									JOINT RightHandMiddle2
									{
										OFFSET -3.438232 0.000000 0.000000
										CHANNELS 3 Xrotation Yrotation Zrotation
										JOINT RightHandMiddle3
										{
											OFFSET -3.691551 0.000000 0.000000
											CHANNELS 3 Xrotation Yrotation Zrotation
											End Site
											{
												OFFSET 1.082298 3.499527 0.457670
											}
										}
									}
								}
								JOINT RightHandRing1
								{
									OFFSET -13.966164 -0.268127 -3.067488
									CHANNELS 3 Xrotation Yrotation Zrotation
									JOINT RightHandRing2
									{
										OFFSET -3.162567 0.000000 0.000000
										CHANNELS 3 Xrotation Yrotation Zrotation
										JOINT RightHandRing3
										{
											OFFSET -3.324348 0.000000 0.000000
											CHANNELS 3 Xrotation Yrotation Zrotation
											End Site
											{
												OFFSET 0.861900 3.184998 0.405154
											}
										}
									}
								}
								JOINT RightHandPinky1
								{
									OFFSET -13.131393 -0.168503 -5.746925
									CHANNELS 3 Xrotation Yrotation Zrotation
									JOINT RightHandPinky2
									{
										OFFSET -2.849182 0.000000 0.000000
										CHANNELS 3 Xrotation Yrotation Zrotation
										JOINT RightHandPinky3
										{
											OFFSET -2.805038 0.000000 0.000000
											CHANNELS 3 Xrotation Yrotation Zrotation
											End Site
											{
												OFFSET 0.882500 2.642609 0.325652
											}
										}
									}
								}
							}
							JOINT Right_Sleeve
							{
								OFFSET -6.592125 -0.646545 0.805568
								CHANNELS 3 Xrotation Yrotation Zrotation
								End Site
								{
									OFFSET 0.000179 20.275787 -0.000000
								}
							}
						}
					}
				}
				JOINT Bind_Right_JacketString
				{
					OFFSET -3.534800 11.969597 7.200700
					CHANNELS 3 Xrotation Yrotation Zrotation
					JOINT Bind_Right_JacketString1
					{
						OFFSET -0.319900 -6.102600 2.794100
						CHANNELS 3 Xrotation Yrotation Zrotation
						End Site
						{
							OFFSET 0.000000 6.719452 0.000000
						}
					}
				}
				JOINT Bind_Left_JacketString
				{
					OFFSET 2.904800 11.969597 7.200700
					CHANNELS 3 Xrotation Yrotation Zrotation
					JOINT Bind_Left_JacketString1
					{
						OFFSET 0.364800 -5.904503 3.186800
						CHANNELS 3 Xrotation Yrotation Zrotation
						End Site
						{
							OFFSET 0.000000 6.719513 0.000000
						}
					}
				}
				JOINT HairE
				{
					OFFSET 5.915200 17.612701 -11.592200
					CHANNELS 3 Xrotation Yrotation Zrotation
					JOINT HairE1
					{
						OFFSET 0.289200 -7.171898 -1.284500
						CHANNELS 3 Xrotation Yrotation Zrotation
						End Site
						{
							OFFSET 0.000000 7.291756 0.000000
						}
					}
				}
				JOINT HairF
				{
					OFFSET -0.864800 17.612701 -11.592200
					CHANNELS 3 Xrotation Yrotation Zrotation
					JOINT HairF1
					{
						OFFSET 0.000000 -14.087097 -2.127501
						CHANNELS 3 Xrotation Yrotation Zrotation
						End Site
						{
							OFFSET 0.000000 14.246841 0.000000
						}
					}
				}
				JOINT HairG
				{
					OFFSET -8.087700 17.612701 -11.592200
					CHANNELS 3 Xrotation Yrotation Zrotation
					JOINT HairG1
					{
						OFFSET -0.293600 -6.081398 -0.910100
						CHANNELS 3 Xrotation Yrotation Zrotation
						End Site
						{
							OFFSET 0.000000 6.156120 0.000000
						}
					}
				}
			}
		}
	}
	JOINT Pouch
	{
		OFFSET 0.000000 4.394501 10.847300
		CHANNELS 3 Xrotation Yrotation Zrotation
		End Site
		{
			OFFSET 0.000000 21.880577 0.000000
		}
	}
	JOINT Bag
	{
		OFFSET -13.229000 4.813004 -0.593300
		CHANNELS 3 Xrotation Yrotation Zrotation
		End Site
		{
			OFFSET 0.000000 21.880577 0.000000
		}
	}
	JOINT OccupyGuyFacialAnim_Joint
	{
		OFFSET 1.000000 -70.206398 -1.655000
		CHANNELS 3 Xrotation Yrotation Zrotation
		End Site
		{
			OFFSET 0.000000 21.880577 0.000000
		}
	}
}
MOTION
Frames: 5
Frame Time: 0.016667
-0.327587 54.699852 1.498583 16.610433 -8.012813 -5.569544 -0.000002 -0.000000 0.000000 -79.145732 -2.067102 4.195737 51.003546 7.764391 -4.094413 5.921037 25.419177 10.554479 -0.000000 0.000002 0.000000 0.000003 -0.000001 -0.000000 6.583027 -16.337353 5.233805 55.135551 -9.961058 11.289085 -38.903159 -12.259350 15.332479 -0.000002 -0.000001 0.000002 0.000001 -0.000001 -0.000000 10.628506 13.771307 -7.771592 2.878200 4.087945 -0.126405 2.848456 4.312291 -0.311450 -0.690420 -2.335958 4.374011 -6.949611 -9.364420 11.092255 -0.000002 0.000000 0.000000 -0.000002 0.000000 0.000000 -0.000002 0.000000 0.000000 -0.000002 0.000000 -0.000000 -0.000002 -0.000000 -0.000000 -0.000002 0.000000 -0.000000 -0.000002 -0.000000 -0.000000 -0.000002 0.000000 0.000000 -0.000002 0.000000 0.000000 1.187664 -1.370112 -14.873633 -9.759265 30.208400 -41.048850 0.000012 -11.762790 0.000002 17.749462 -17.726718 21.007626 -5.456646 -6.701479 3.223895 8.077450 27.563309 1.095391 -0.000001 0.000002 -0.000001 -1.812253 -6.056777 -12.583263 0.237185 1.651676 -16.342787 0.000001 0.000001 0.000000 -1.249855 -0.637577 -18.645266 0.387941 2.098218 -20.947896 0.000003 0.000001 -0.000003 0.049648 3.688791 -26.109464 0.502169 2.375025 -23.874306 -0.000001 -0.000001 -0.000000 0.229232 4.355142 -33.121203 0.780416 2.923329 -29.888682 -0.000001 -0.000001 -0.000001 0.000001 -0.000002 -0.000000 2.870348 11.957085 -6.152307 -33.803658 70.877570 6.927810 0.000008 94.709555 -0.000016 17.111801 20.467038 -11.105449 -15.303001 26.927630 3.986240 9.854594 -45.625971 -5.441313 0.000000 -0.000003 0.000003 0.782863 -4.716622 13.868240 0.169904 -1.247724 15.507878 -0.000001 0.000001 0.000001 1.576771 -6.016277 32.822276 0.816463 -2.636018 34.413621 0.000004 -0.000001 -0.000001 2.347863 -6.542664 43.827408 1.218026 -3.142198 42.367851 0.000002 0.000001 0.000002 3.008740 -7.082367 54.088750 1.765795 -3.652471 51.591445 -0.000001 -0.000001 0.000000 -0.000001 -0.000000 -0.000000 -0.000002 0.000000 -0.000000 -0.000001 0.000001 -0.000000 -0.000002 0.000000 0.000000 -0.000002 0.000000 0.000000 -0.000002 0.000000 -0.000000 -0.000001 0.000001 -0.000000 -0.000002 0.000000 0.000000 -0.000002 0.000000 0.000000 -0.000002 0.000000 -0.000000 -0.000001 0.000001 -0.000000 -0.000002 -0.000000 0.000000 -0.000002 -0.000000 0.000000 -0.000002 -0.000000 0.000000 
-0.756771 54.788788 2.493917 18.169321 -7.752348 -5.587363 0.000000 -0.000001 -0.000000 -80.854891 -2.169784 4.349376 53.022485 7.092409 -3.996529 4.339161 25.377634 10.009366 -0.000000 0.000000 0.000000 -0.000000 0.000000 -0.000001 0.671773 -15.846637 2.698889 61.038710 -10.316105 11.103494 -36.870918 -13.407428 17.190085 0.000001 -0.000001 0.000001 -0.000003 0.000002 0.000000 11.094583 13.307612 -7.953701 2.886035 3.978105 -0.232996 2.857337 4.195418 -0.413707 -0.775471 -2.317378 4.285781 -7.176071 -9.471883 10.982039 -0.000001 -0.000000 0.000000 -0.000001 -0.000000 0.000000 -0.000001 -0.000000 0.000000 -0.000001 -0.000000 0.000000 -0.000001 -0.000000 0.000000 -0.000001 -0.000000 0.000000 -0.000001 -0.000000 0.000000 -0.000001 -0.000000 0.000000 -0.000001 -0.000000 0.000000 1.200902 -1.794889 -15.693772 -10.576674 29.125136 -39.831642 0.000003 -14.202267 -0.000008 18.131909 -16.995298 22.228630 -5.549635 -6.736311 3.295548 8.061875 27.560102 1.140163 -0.000003 0.000001 0.000000 -1.804110 -6.064271 -12.527737 0.233817 1.640168 -16.225640 0.000002 0.000001 0.000000 -1.242791 -0.654472 -18.510853 0.385032 2.090614 -20.868236 -0.000001 0.000001 -0.000001 0.044787 3.667141 -25.898570 0.498593 2.366933 -23.787841 0.000000 -0.000001 -0.000000 0.274476 4.440101 -32.904928 0.769650 2.904561 -29.677049 0.000001 -0.000003 0.000002 0.000002 -0.000000 0.000002 2.895101 12.404896 -5.753554 -30.219984 69.244267 3.681452 -0.000049 96.122427 0.000049 20.583422 21.050440 -13.126468 -15.466350 26.941196 3.833656 9.820630 -45.228645 -5.419505 0.000000 -0.000001 0.000000 0.750054 -4.663070 13.088635 0.153303 -1.186290 14.726129 -0.000001 0.000004 0.000001 1.442559 -5.897376 30.789578 0.743594 -2.526486 32.796103 0.000001 0.000003 -0.000000 2.163462 -6.430837 41.453719 1.092392 -2.998886 40.023027 0.000003 -0.000003 0.000001 2.840309 -7.022721 51.977275 1.490545 -3.416681 47.129217 0.000002 0.000001 0.000002 0.000000 0.000001 -0.000000 0.000001 0.000000 -0.000002 0.000003 -0.000002 0.000001 0.000001 0.000000 -0.000002 0.000001 0.000000 -0.000002 0.000001 0.000000 -0.000002 0.000003 -0.000002 0.000001 0.000001 0.000000 -0.000002 0.000001 0.000000 -0.000002 0.000001 0.000000 -0.000002 0.000003 -0.000002 0.000001 0.000000 -0.000001 -0.000000 0.000000 -0.000001 -0.000000 0.000000 -0.000001 -0.000000 
-1.144845 54.887779 3.494612 19.768391 -7.501721 -5.615972 -0.000001 0.000000 0.000000 -82.489076 -2.272100 4.475186 54.863880 6.459942 -3.903215 2.781469 25.345773 9.530030 0.000000 0.000000 0.000000 0.000001 -0.000000 0.000000 -4.945961 -15.126140 0.025681 66.184369 -10.274919 10.961292 -33.853160 -14.394041 19.043747 0.000002 0.000001 0.000001 0.000001 -0.000002 -0.000000 11.570488 12.811760 -8.172431 2.894002 3.864281 -0.347307 2.866439 4.074823 -0.524102 -0.868218 -2.297583 4.191815 -7.411885 -9.572893 10.876493 -0.000001 -0.000000 0.000000 -0.000001 -0.000000 0.000000 -0.000001 -0.000000 0.000000 -0.000001 -0.000000 0.000000 -0.000001 -0.000000 0.000000 -0.000001 -0.000000 0.000000 -0.000001 -0.000000 0.000000 -0.000001 -0.000000 0.000000 -0.000001 -0.000000 0.000000 1.202247 -2.183948 -16.571277 -11.438023 28.007285 -38.630853 0.000002 -16.749039 -0.000010 18.480081 -16.138077 23.428259 -5.643223 -6.771500 3.367527 8.046199 27.556910 1.185215 0.000004 -0.000003 0.000001 -1.795909 -6.071796 -12.471884 0.230464 1.628577 -16.107820 0.000001 0.000000 -0.000004 -1.235643 -0.671455 -18.375640 0.382581 2.084164 -20.800774 0.000001 0.000001 -0.000003 0.039986 3.645348 -25.686415 0.495635 2.360207 -23.716041 -0.000001 -0.000001 -0.000001 0.319283 4.525962 -32.687332 0.758942 2.885664 -29.464715 0.000001 0.000001 0.000001 -0.000000 0.000001 -0.000001 2.921975 12.894766 -5.335069 -27.021058 67.470241 0.787290 -0.000094 97.583691 0.000094 24.180835 21.456160 -15.177649 -15.633601 26.955514 3.677451 9.785874 -44.821771 -5.396976 -0.000001 -0.000001 0.000002 0.717152 -4.607639 12.288697 0.137020 -1.122561 13.918180 0.000002 0.000001 0.000000 1.306885 -5.767768 28.660259 0.670833 -2.409939 31.106611 0.000002 0.000003 0.000001 1.971112 -6.299190 38.969375 0.968388 -2.844903 37.590735 -0.000001 0.000001 0.000001 2.670720 -6.955888 49.823703 1.221435 -3.145923 42.430126 0.000000 0.000002 0.000001 0.000000 -0.000001 -0.000001 -0.000001 0.000002 -0.000001 0.000002 0.000000 -0.000001 -0.000001 0.000002 -0.000001 -0.000001 0.000002 -0.000001 -0.000001 0.000002 -0.000001 0.000002 0.000000 -0.000000 -0.000001 0.000002 -0.000001 -0.000001 0.000002 -0.000001 -0.000001 0.000002 -0.000001 0.000002 0.000000 -0.000000 -0.000001 0.000000 0.000000 -0.000001 0.000000 0.000000 -0.000001 0.000000 0.000000 
-1.498794 54.994125 4.498503 21.402879 -7.259307 -5.653370 0.000000 -0.000000 -0.000001 -84.057697 -2.372228 4.577045 56.549745 5.861197 -3.813561 1.247629 25.321497 9.105011 -0.000000 -0.000000 -0.000000 -0.000000 0.000000 -0.000000 -10.288859 -14.215985 -2.744065 70.570232 -9.837238 10.827463 -30.071656 -15.171187 20.741348 -0.000002 -0.000001 0.000002 -0.000000 0.000002 0.000000 12.052676 12.288806 -8.421352 2.901919 3.747259 -0.467801 2.875567 3.951233 -0.641012 -0.967470 -2.276755 4.092980 -7.655621 -9.668306 10.774950 0.000001 -0.000000 -0.000000 0.000001 -0.000000 -0.000000 0.000001 -0.000000 -0.000000 0.000001 -0.000000 -0.000000 0.000001 -0.000000 -0.000000 0.000001 -0.000000 -0.000000 0.000001 -0.000000 -0.000000 0.000001 -0.000000 -0.000000 0.000001 -0.000000 -0.000000 1.192194 -2.545272 -17.494051 -12.336952 26.855240 -37.455122 0.000002 -19.379962 -0.000000 18.788819 -15.181776 24.605545 -5.737352 -6.807010 3.439788 8.030441 27.553646 1.230512 -0.000001 0.000001 -0.000001 -1.787655 -6.079353 -12.415704 0.227105 1.616917 -15.989355 0.000002 0.000002 0.000000 -1.228406 -0.688518 -18.239653 0.380515 2.078750 -20.744273 0.000001 0.000000 0.000001 0.035232 3.623426 -25.473073 0.493230 2.354725 -23.657463 -0.000001 -0.000003 0.000002 0.363619 4.612639 -32.468493 0.748244 2.866702 -29.251740 -0.000001 -0.000001 0.000001 -0.000000 0.000002 -0.000001 2.947546 13.415554 -4.901027 -24.203554 65.584043 -1.746858 -0.000041 99.080746 0.000022 27.863634 21.684515 -17.233056 -15.804274 26.970523 3.518023 9.750417 -44.406509 -5.373790 -0.000000 -0.000002 -0.000002 0.684509 -4.550883 11.475703 0.121340 -1.057231 13.093353 -0.000002 -0.000001 -0.000002 1.172687 -5.629161 26.469227 0.599702 -2.287988 29.371080 0.000000 -0.000002 0.000002 1.777382 -6.150702 36.414563 0.848411 -2.682013 35.102340 0.000002 0.000001 -0.000002 2.501525 -6.882162 47.643373 0.967625 -2.843882 37.575094 0.000002 -0.000001 0.000000 0.000001 -0.000000 -0.000000 0.000002 -0.000001 -0.000000 0.000002 0.000000 0.000000 0.000002 -0.000001 -0.000000 0.000002 -0.000001 -0.000000 0.000002 -0.000001 -0.000000 0.000002 0.000000 0.000001 0.000002 -0.000001 -0.000000 0.000002 -0.000001 -0.000000 0.000002 -0.000001 -0.000000 0.000002 0.000000 0.000001 0.000000 -0.000000 -0.000001 0.000000 -0.000000 -0.000001 0.000000 -0.000000 -0.000001 
-1.825840 55.105965 5.504211 23.067883 -7.023148 -5.698395 0.000001 0.000000 -0.000001 -85.567039 -2.472591 4.658323 58.097972 5.290878 -3.727537 -0.262290 25.305077 8.722666 -0.000000 0.000002 0.000000 -0.000001 0.000000 0.000001 -15.360593 -13.159007 -5.572622 74.178190 -9.022108 10.698597 -25.769289 -15.739198 22.134131 0.000002 0.000001 0.000000 -0.000000 0.000001 -0.000000 12.540231 11.738123 -8.700854 2.909739 3.626956 -0.594634 2.880763 3.824571 -0.764594 -1.073813 -2.254797 3.988814 -7.907954 -9.757602 10.677780 0.000003 -0.000000 -0.000000 0.000003 -0.000000 -0.000000 0.000003 -0.000000 0.000000 0.000003 -0.000000 0.000000 0.000001 0.000000 -0.000000 0.000003 -0.000000 0.000000 0.000001 0.000000 -0.000000 0.000003 -0.000000 -0.000000 0.000003 -0.000000 -0.000000 1.171177 -2.879757 -18.461096 -13.275125 25.668679 -36.310693 -0.000008 -22.092947 -0.000010 19.054244 -14.131863 25.759681 -5.832117 -6.842892 3.512379 8.014595 27.550371 1.276095 0.000002 0.000002 0.000002 -1.779340 -6.086964 -12.359185 0.223759 1.605180 -15.870175 0.000001 0.000002 -0.000002 -1.221086 -0.705671 -18.102843 0.378931 2.074567 -20.700531 0.000002 0.000000 -0.000005 0.030555 3.601324 -25.258432 0.491436 2.350672 -23.614242 -0.000000 0.000001 0.000000 0.407505 4.700224 -32.248277 0.737580 2.847609 -29.037976 -0.000001 -0.000000 0.000001 -0.000001 0.000002 0.000000 2.970381 13.964340 -4.451076 -21.721523 63.600263 -3.964463 0.000038 100.611139 -0.000011 31.608838 21.739000 -19.246404 -15.978901 26.986349 3.354939 9.714149 -43.981610 -5.349879 -0.000000 0.000001 0.000001 0.652315 -4.492966 10.653403 0.106378 -0.990740 12.256447 0.000003 0.000000 0.000004 1.041656 -5.482481 24.234438 0.531055 -2.161585 27.602750 0.000003 0.000003 -0.000002 1.586074 -5.986967 33.809973 0.733850 -2.511297 32.573906 -0.000002 -0.000000 0.000001 2.333652 -6.801684 45.444172 0.735454 -2.513808 32.610759 0.000000 0.000003 0.000001 0.000001 0.000001 0.000000 0.000003 0.000000 0.000000 0.000003 0.000000 0.000000 0.000003 0.000000 -0.000000 0.000003 0.000000 -0.000000 0.000003 0.000000 0.000000 0.000003 0.000000 0.000000 0.000003 0.000000 -0.000000 0.000003 0.000000 -0.000000 0.000003 0.000000 0.000000 0.000003 0.000000 0.000000 0.000001 0.000000 -0.000001 0.000001 0.000000 -0.000001 0.000001 0.000000 -0.000001 
